<?xml version="1.0" encoding="UTF-8" standalone="no"?>
<!-- Generator: Adobe Illustrator 16.0.4, SVG Export Plug-In . SVG Version: 6.00 Build 0)  -->

<svg
   xmlns:dc="http://purl.org/dc/elements/1.1/"
   xmlns:cc="http://creativecommons.org/ns#"
   xmlns:rdf="http://www.w3.org/1999/02/22-rdf-syntax-ns#"
   xmlns:svg="http://www.w3.org/2000/svg"
   xmlns="http://www.w3.org/2000/svg"
   xmlns:sodipodi="http://sodipodi.sourceforge.net/DTD/sodipodi-0.dtd"
   xmlns:inkscape="http://www.inkscape.org/namespaces/inkscape"
   version="1.1"
   id="svg2"
   inkscape:output_extension="org.inkscape.output.svg.inkscape"
   sodipodi:docname="placeholder-outline.svg"
   inkscape:version="0.91 r13725"
   sodipodi:version="0.32"
   x="0px"
   y="0px"
   width="208px"
   height="303px"
   viewBox="0 0 208 303"
   enable-background="new 0 0 208 303"
   xml:space="preserve"><metadata
     id="metadata8"><rdf:RDF><cc:Work
         rdf:about=""><dc:format>image/svg+xml</dc:format><dc:type
           rdf:resource="http://purl.org/dc/dcmitype/StillImage" /><dc:title /></cc:Work></rdf:RDF></metadata><defs
     id="defs6" /><sodipodi:namedview
     width="208px"
     height="303px"
     inkscape:cy="192.36848"
     inkscape:cx="43.00658"
     inkscape:zoom="2.4857309"
     pagecolor="#ffffff"
     bordercolor="#666666"
     borderopacity="1.0"
     gridtolerance="10.0"
     guidetolerance="10.0"
     objecttolerance="10.0"
     id="base"
     inkscape:current-layer="svg2"
     inkscape:window-y="154"
     inkscape:window-x="262"
     inkscape:pageopacity="0.0"
     inkscape:pageshadow="2"
     inkscape:window-width="1891"
     inkscape:window-height="1012"
     showgrid="false"
     inkscape:window-maximized="0" /><path
     style="fill:#000000;fill-opacity:0.05882353;stroke:#000000;stroke-width:0.50004679;stroke-opacity:0"
     d="M 8.8535156 0.31054688 C 4.1535156 0.31054688 0.31054688 4.169587 0.31054688 8.8886719 L 0.31054688 294.11133 C 0.31054687 298.82439 4.1535156 302.68945 8.8535156 302.68945 L 199.13672 302.68945 C 203.84772 302.68945 207.68945 298.82439 207.68945 294.11133 L 207.68945 8.8886719 C 207.68945 4.169587 203.84772 0.31054688 199.13672 0.31054688 L 8.8535156 0.31054688 z M 13.134766 4.171875 L 195.08398 4.171875 C 199.58859 4.171875 203.26172 7.9268209 203.26172 12.517578 L 203.26172 289.98438 L 203.25977 289.98438 C 203.25977 294.56928 199.58665 298.32813 195.08203 298.32812 L 13.134766 298.32812 C 8.6406708 298.32812 4.96875 294.56927 4.96875 289.98438 L 4.96875 12.517578 C 4.96875 7.9268209 8.6406708 4.171875 13.134766 4.171875 z "
     id="path5" /><path
     style="fill:#a0a0a3;stroke:none;stroke-width:1px;stroke-linecap:butt;stroke-linejoin:miter;stroke-opacity:1;fill-opacity:0"
     d="M 3.8231677,299.76722 1.1955491,297.41948 0.9842843,152.72798 C 0.8270915,45.069461 1.0099206,7.4619512 1.6986152,5.7917897 3.7189925,0.89214831 -3.080059,1.1974285 104.02199,1.1974285 l 98.04312,0 2.35188,2.3518851 2.35189,2.3518852 0,145.3437012 c 0,98.14685 -0.26902,145.84636 -0.82844,146.89165 -2.21459,4.138 1.89789,3.9784 -102.50902,3.9784 l -96.9806337,0 -2.6276186,-2.34773 z"
     id="path3355"
     inkscape:connector-curvature="0" /><path
     style="fill:#a0a0a3;fill-opacity:0"
     d="M 3.8231677,299.76722 1.1955491,297.41948 0.9842843,152.72798 C 0.8270915,45.069461 1.0099206,7.4619512 1.6986152,5.7917897 3.7189925,0.89214831 -3.080059,1.1974285 104.02199,1.1974285 l 98.04312,0 2.35188,2.3518851 2.35189,2.3518852 0,145.3437012 c 0,98.14685 -0.26902,145.84636 -0.82844,146.89165 -2.21459,4.138 1.89789,3.9784 -102.50902,3.9784 l -96.9806337,0 -2.6276186,-2.34773 z"
     id="path4176"
     inkscape:connector-curvature="0" /><path
     style="fill:#a0a0a3;fill-opacity:0"
     d="M 3.8231677,299.76722 1.1955491,297.41948 0.9842843,152.72798 C 0.8270915,45.069461 1.0099206,7.4619512 1.6986152,5.7917897 3.7189925,0.89214831 -3.080059,1.1974285 104.02199,1.1974285 l 98.04312,0 2.35188,2.3518851 2.35189,2.3518852 0,145.3437012 c 0,98.14685 -0.26902,145.84636 -0.82844,146.89165 -2.21459,4.138 1.89789,3.9784 -102.50902,3.9784 l -96.9806337,0 -2.6276186,-2.34773 z"
     id="path4178"
     inkscape:connector-curvature="0" /><path
     style="fill:#a0a0a3;fill-opacity:0"
     d="M 3.8231677,299.76722 1.1955491,297.41948 0.9842843,152.72798 C 0.8270915,45.069461 1.0099206,7.4619512 1.6986152,5.7917897 3.7189925,0.89214831 -3.080059,1.1974285 104.02199,1.1974285 l 98.04312,0 2.35188,2.3518851 2.35189,2.3518852 0,145.3437012 c 0,98.14685 -0.26902,145.84636 -0.82844,146.89165 -2.21459,4.138 1.89789,3.9784 -102.50902,3.9784 l -96.9806337,0 -2.6276186,-2.34773 z"
     id="path4180"
     inkscape:connector-curvature="0" /><path
     style="fill:#a0a0a3;fill-opacity:0"
     d="M 3.8231677,299.76722 1.1955491,297.41948 0.9842843,152.72798 C 0.8270915,45.069461 1.0099206,7.4619512 1.6986152,5.7917897 3.7189925,0.89214831 -3.080059,1.1974285 104.02199,1.1974285 l 98.04312,0 2.35188,2.3518851 2.35189,2.3518852 0,145.3437012 c 0,98.14685 -0.26902,145.84636 -0.82844,146.89165 -2.21459,4.138 1.89789,3.9784 -102.50902,3.9784 l -96.9806337,0 -2.6276186,-2.34773 z"
     id="path4182"
     inkscape:connector-curvature="0" /><path
     style="fill:#a0a0a3;fill-opacity:0"
     d="M 3.8231677,299.76722 1.1955491,297.41948 0.9842843,152.72798 C 0.8270915,45.069461 1.0099206,7.4619512 1.6986152,5.7917897 3.7189925,0.89214831 -3.080059,1.1974285 104.02199,1.1974285 l 98.04312,0 2.35188,2.3518851 2.35189,2.3518852 0,145.3437012 c 0,98.14685 -0.26902,145.84636 -0.82844,146.89165 -2.21459,4.138 1.89789,3.9784 -102.50902,3.9784 l -96.9806337,0 -2.6276186,-2.34773 z"
     id="path4184"
     inkscape:connector-curvature="0" /></svg>