<?xml version="1.0" encoding="UTF-8" standalone="no"?>
<!-- Generator: Adobe Illustrator 16.0.4, SVG Export Plug-In . SVG Version: 6.00 Build 0)  -->

<svg
   xmlns:dc="http://purl.org/dc/elements/1.1/"
   xmlns:cc="http://creativecommons.org/ns#"
   xmlns:rdf="http://www.w3.org/1999/02/22-rdf-syntax-ns#"
   xmlns:svg="http://www.w3.org/2000/svg"
   xmlns="http://www.w3.org/2000/svg"
   xmlns:sodipodi="http://sodipodi.sourceforge.net/DTD/sodipodi-0.dtd"
   xmlns:inkscape="http://www.inkscape.org/namespaces/inkscape"
   version="1.1"
   id="svg2"
   inkscape:output_extension="org.inkscape.output.svg.inkscape"
   sodipodi:docname="placeholder-tinted.svg"
   inkscape:version="0.91 r13725"
   sodipodi:version="0.32"
   x="0px"
   y="0px"
   width="208px"
   height="303px"
   viewBox="0 0 208 303"
   enable-background="new 0 0 208 303"
   xml:space="preserve"><metadata
     id="metadata8"><rdf:RDF><cc:Work
         rdf:about=""><dc:format>image/svg+xml</dc:format><dc:type
           rdf:resource="http://purl.org/dc/dcmitype/StillImage" /><dc:title /></cc:Work></rdf:RDF></metadata><defs
     id="defs6" /><sodipodi:namedview
     width="208px"
     height="303px"
     inkscape:cy="107.05607"
     inkscape:cx="-3.2921086"
     inkscape:zoom="1.7576772"
     pagecolor="#ffffff"
     bordercolor="#666666"
     borderopacity="1.0"
     gridtolerance="10.0"
     guidetolerance="10.0"
     objecttolerance="10.0"
     id="base"
     inkscape:current-layer="svg2"
     inkscape:window-y="154"
     inkscape:window-x="262"
     inkscape:pageopacity="0.0"
     inkscape:pageshadow="2"
     inkscape:window-width="1280"
     inkscape:window-height="1003"
     showgrid="false"
     inkscape:window-maximized="0" /><g
     id="Layer_x0020_1"
     transform="matrix(1,0,0,1.0029936,0,-0.363221)"
     style="fill:#000000;fill-opacity:0.03921569;stroke:#000000;stroke-opacity:0"><path
       id="path5"
       d="M207.689,293.596c0,4.699-3.842,8.552-8.553,8.552   H8.853c-4.7,0-8.542-3.853-8.542-8.552V9.225c0-4.705,3.842-8.553,8.542-8.553h190.284c4.711,0,8.553,3.848,8.553,8.553V293.596   L207.689,293.596z"
       stroke-width="0.4993"
       stroke="#000000"
       fill="#FFFFFF"
       style="fill:#000000;fill-opacity:0.03921569;stroke:#000000;stroke-opacity:0" /></g><path
     style="fill:#a0a0a3;stroke:none;stroke-width:1px;stroke-linecap:butt;stroke-linejoin:miter;stroke-opacity:1;fill-opacity:0"
     d="M 3.8231677,299.76722 1.1955491,297.41948 0.9842843,152.72798 C 0.8270915,45.069461 1.0099206,7.4619512 1.6986152,5.7917897 3.7189925,0.89214831 -3.080059,1.1974285 104.02199,1.1974285 l 98.04312,0 2.35188,2.3518851 2.35189,2.3518852 0,145.3437012 c 0,98.14685 -0.26902,145.84636 -0.82844,146.89165 -2.21459,4.138 1.89789,3.9784 -102.50902,3.9784 l -96.9806337,0 -2.6276186,-2.34773 z"
     id="path3355"
     inkscape:connector-curvature="0" /><path
     style="fill:#a0a0a3;fill-opacity:0"
     d="M 3.8231677,299.76722 1.1955491,297.41948 0.9842843,152.72798 C 0.8270915,45.069461 1.0099206,7.4619512 1.6986152,5.7917897 3.7189925,0.89214831 -3.080059,1.1974285 104.02199,1.1974285 l 98.04312,0 2.35188,2.3518851 2.35189,2.3518852 0,145.3437012 c 0,98.14685 -0.26902,145.84636 -0.82844,146.89165 -2.21459,4.138 1.89789,3.9784 -102.50902,3.9784 l -96.9806337,0 -2.6276186,-2.34773 z"
     id="path4176"
     inkscape:connector-curvature="0" /><path
     style="fill:#a0a0a3;fill-opacity:0"
     d="M 3.8231677,299.76722 1.1955491,297.41948 0.9842843,152.72798 C 0.8270915,45.069461 1.0099206,7.4619512 1.6986152,5.7917897 3.7189925,0.89214831 -3.080059,1.1974285 104.02199,1.1974285 l 98.04312,0 2.35188,2.3518851 2.35189,2.3518852 0,145.3437012 c 0,98.14685 -0.26902,145.84636 -0.82844,146.89165 -2.21459,4.138 1.89789,3.9784 -102.50902,3.9784 l -96.9806337,0 -2.6276186,-2.34773 z"
     id="path4178"
     inkscape:connector-curvature="0" /><path
     style="fill:#a0a0a3;fill-opacity:0"
     d="M 3.8231677,299.76722 1.1955491,297.41948 0.9842843,152.72798 C 0.8270915,45.069461 1.0099206,7.4619512 1.6986152,5.7917897 3.7189925,0.89214831 -3.080059,1.1974285 104.02199,1.1974285 l 98.04312,0 2.35188,2.3518851 2.35189,2.3518852 0,145.3437012 c 0,98.14685 -0.26902,145.84636 -0.82844,146.89165 -2.21459,4.138 1.89789,3.9784 -102.50902,3.9784 l -96.9806337,0 -2.6276186,-2.34773 z"
     id="path4180"
     inkscape:connector-curvature="0" /><path
     style="fill:#a0a0a3;fill-opacity:0"
     d="M 3.8231677,299.76722 1.1955491,297.41948 0.9842843,152.72798 C 0.8270915,45.069461 1.0099206,7.4619512 1.6986152,5.7917897 3.7189925,0.89214831 -3.080059,1.1974285 104.02199,1.1974285 l 98.04312,0 2.35188,2.3518851 2.35189,2.3518852 0,145.3437012 c 0,98.14685 -0.26902,145.84636 -0.82844,146.89165 -2.21459,4.138 1.89789,3.9784 -102.50902,3.9784 l -96.9806337,0 -2.6276186,-2.34773 z"
     id="path4182"
     inkscape:connector-curvature="0" /><path
     style="fill:#a0a0a3;fill-opacity:0"
     d="M 3.8231677,299.76722 1.1955491,297.41948 0.9842843,152.72798 C 0.8270915,45.069461 1.0099206,7.4619512 1.6986152,5.7917897 3.7189925,0.89214831 -3.080059,1.1974285 104.02199,1.1974285 l 98.04312,0 2.35188,2.3518851 2.35189,2.3518852 0,145.3437012 c 0,98.14685 -0.26902,145.84636 -0.82844,146.89165 -2.21459,4.138 1.89789,3.9784 -102.50902,3.9784 l -96.9806337,0 -2.6276186,-2.34773 z"
     id="path4184"
     inkscape:connector-curvature="0" /></svg>