<?xml version="1.0" encoding="UTF-8" standalone="no"?>
<!-- Generator: Adobe Illustrator 16.0.4, SVG Export Plug-In . SVG Version: 6.00 Build 0)  -->

<svg
   xmlns:dc="http://purl.org/dc/elements/1.1/"
   xmlns:cc="http://creativecommons.org/ns#"
   xmlns:rdf="http://www.w3.org/1999/02/22-rdf-syntax-ns#"
   xmlns:svg="http://www.w3.org/2000/svg"
   xmlns="http://www.w3.org/2000/svg"
   xmlns:sodipodi="http://sodipodi.sourceforge.net/DTD/sodipodi-0.dtd"
   xmlns:inkscape="http://www.inkscape.org/namespaces/inkscape"
   version="1.1"
   id="svg2"
   inkscape:output_extension="org.inkscape.output.svg.inkscape"
   sodipodi:docname="placeholder-hearts.svg"
   inkscape:version="0.91 r13725"
   sodipodi:version="0.32"
   x="0px"
   y="0px"
   width="208px"
   height="303px"
   viewBox="0 0 208 303"
   enable-background="new 0 0 208 303"
   xml:space="preserve"><metadata
     id="metadata8"><rdf:RDF><cc:Work
         rdf:about=""><dc:format>image/svg+xml</dc:format><dc:type
           rdf:resource="http://purl.org/dc/dcmitype/StillImage" /><dc:title /></cc:Work></rdf:RDF></metadata><defs
     id="defs6" /><sodipodi:namedview
     width="208px"
     height="303px"
     inkscape:cy="107.05607"
     inkscape:cx="-85.787347"
     inkscape:zoom="1.7576772"
     pagecolor="#ffffff"
     bordercolor="#666666"
     borderopacity="1.0"
     gridtolerance="10.0"
     guidetolerance="10.0"
     objecttolerance="10.0"
     id="base"
     inkscape:current-layer="svg2"
     inkscape:window-y="154"
     inkscape:window-x="262"
     inkscape:pageopacity="0.0"
     inkscape:pageshadow="2"
     inkscape:window-width="1280"
     inkscape:window-height="1003"
     showgrid="false"
     inkscape:window-maximized="0"
     showguides="true"
     inkscape:guide-bbox="true"><sodipodi:guide
       position="104.68361,224.15948"
       orientation="1,0"
       id="guide4148" /><sodipodi:guide
       position="63.151527,150.19823"
       orientation="0,1"
       id="guide4150" /><sodipodi:guide
       position="-191.16138,210.50509"
       orientation="0,1"
       id="guide4152" /><sodipodi:guide
       position="-44.376749,89.891363"
       orientation="0,1"
       id="guide4154" /><sodipodi:guide
       position="45.514614,217.33228"
       orientation="1,0"
       id="guide4156" /><sodipodi:guide
       position="164.42154,170.6798"
       orientation="1,0"
       id="guide4158" /></sodipodi:namedview><path
     style="fill:#000000;fill-opacity:0.05882353;stroke:#000000;stroke-width:0.50004679;stroke-opacity:0"
     d="M 8.8535156 0.31054688 C 4.1535156 0.31054688 0.31054688 4.169587 0.31054688 8.8886719 L 0.31054688 294.11133 C 0.31054687 298.82439 4.1535156 302.68945 8.8535156 302.68945 L 199.13672 302.68945 C 203.84772 302.68945 207.68945 298.82439 207.68945 294.11133 L 207.68945 8.8886719 C 207.68945 4.169587 203.84772 0.31054688 199.13672 0.31054688 L 8.8535156 0.31054688 z M 78.939453 92.503906 C 102.26459 92.503906 105.37891 115.9082 105.37891 115.9082 C 105.37891 115.9082 108.49322 92.503906 131.81836 92.503906 C 148.14523 92.503906 162.91797 102.99772 162.91797 122.79492 C 162.91797 148.95335 115.10318 175.29119 105.37891 213.66992 C 95.159511 175.259 47.839844 148.95335 47.839844 122.79492 C 47.839844 102.99772 62.61258 92.503906 78.939453 92.503906 z "
     id="path5" /><path
     style="fill:#a0a0a3;stroke:none;stroke-width:1px;stroke-linecap:butt;stroke-linejoin:miter;stroke-opacity:1;fill-opacity:0"
     d="M 3.8231677,299.76722 1.1955491,297.41948 0.9842843,152.72798 C 0.8270915,45.069461 1.0099206,7.4619512 1.6986152,5.7917897 3.7189925,0.89214831 -3.080059,1.1974285 104.02199,1.1974285 l 98.04312,0 2.35188,2.3518851 2.35189,2.3518852 0,145.3437012 c 0,98.14685 -0.26902,145.84636 -0.82844,146.89165 -2.21459,4.138 1.89789,3.9784 -102.50902,3.9784 l -96.9806337,0 -2.6276186,-2.34773 z"
     id="path3355"
     inkscape:connector-curvature="0" /><path
     style="fill:#a0a0a3;fill-opacity:0"
     d="M 3.8231677,299.76722 1.1955491,297.41948 0.9842843,152.72798 C 0.8270915,45.069461 1.0099206,7.4619512 1.6986152,5.7917897 3.7189925,0.89214831 -3.080059,1.1974285 104.02199,1.1974285 l 98.04312,0 2.35188,2.3518851 2.35189,2.3518852 0,145.3437012 c 0,98.14685 -0.26902,145.84636 -0.82844,146.89165 -2.21459,4.138 1.89789,3.9784 -102.50902,3.9784 l -96.9806337,0 -2.6276186,-2.34773 z"
     id="path4176"
     inkscape:connector-curvature="0" /><path
     style="fill:#a0a0a3;fill-opacity:0"
     d="M 3.8231677,299.76722 1.1955491,297.41948 0.9842843,152.72798 C 0.8270915,45.069461 1.0099206,7.4619512 1.6986152,5.7917897 3.7189925,0.89214831 -3.080059,1.1974285 104.02199,1.1974285 l 98.04312,0 2.35188,2.3518851 2.35189,2.3518852 0,145.3437012 c 0,98.14685 -0.26902,145.84636 -0.82844,146.89165 -2.21459,4.138 1.89789,3.9784 -102.50902,3.9784 l -96.9806337,0 -2.6276186,-2.34773 z"
     id="path4178"
     inkscape:connector-curvature="0" /><path
     style="fill:#a0a0a3;fill-opacity:0"
     d="M 3.8231677,299.76722 1.1955491,297.41948 0.9842843,152.72798 C 0.8270915,45.069461 1.0099206,7.4619512 1.6986152,5.7917897 3.7189925,0.89214831 -3.080059,1.1974285 104.02199,1.1974285 l 98.04312,0 2.35188,2.3518851 2.35189,2.3518852 0,145.3437012 c 0,98.14685 -0.26902,145.84636 -0.82844,146.89165 -2.21459,4.138 1.89789,3.9784 -102.50902,3.9784 l -96.9806337,0 -2.6276186,-2.34773 z"
     id="path4180"
     inkscape:connector-curvature="0" /><path
     style="fill:#a0a0a3;fill-opacity:0"
     d="M 3.8231677,299.76722 1.1955491,297.41948 0.9842843,152.72798 C 0.8270915,45.069461 1.0099206,7.4619512 1.6986152,5.7917897 3.7189925,0.89214831 -3.080059,1.1974285 104.02199,1.1974285 l 98.04312,0 2.35188,2.3518851 2.35189,2.3518852 0,145.3437012 c 0,98.14685 -0.26902,145.84636 -0.82844,146.89165 -2.21459,4.138 1.89789,3.9784 -102.50902,3.9784 l -96.9806337,0 -2.6276186,-2.34773 z"
     id="path4182"
     inkscape:connector-curvature="0" /><path
     style="fill:#a0a0a3;fill-opacity:0"
     d="M 3.8231677,299.76722 1.1955491,297.41948 0.9842843,152.72798 C 0.8270915,45.069461 1.0099206,7.4619512 1.6986152,5.7917897 3.7189925,0.89214831 -3.080059,1.1974285 104.02199,1.1974285 l 98.04312,0 2.35188,2.3518851 2.35189,2.3518852 0,145.3437012 c 0,98.14685 -0.26902,145.84636 -0.82844,146.89165 -2.21459,4.138 1.89789,3.9784 -102.50902,3.9784 l -96.9806337,0 -2.6276186,-2.34773 z"
     id="path4184"
     inkscape:connector-curvature="0" /></svg>