<?xml version="1.0" encoding="UTF-8" standalone="no"?>
<!-- Generator: Adobe Illustrator 16.0.4, SVG Export Plug-In . SVG Version: 6.00 Build 0)  -->

<svg
   xmlns:dc="http://purl.org/dc/elements/1.1/"
   xmlns:cc="http://creativecommons.org/ns#"
   xmlns:rdf="http://www.w3.org/1999/02/22-rdf-syntax-ns#"
   xmlns:svg="http://www.w3.org/2000/svg"
   xmlns="http://www.w3.org/2000/svg"
   xmlns:sodipodi="http://sodipodi.sourceforge.net/DTD/sodipodi-0.dtd"
   xmlns:inkscape="http://www.inkscape.org/namespaces/inkscape"
   version="1.1"
   id="svg2"
   inkscape:output_extension="org.inkscape.output.svg.inkscape"
   sodipodi:docname="placeholder-stock.svg"
   inkscape:version="0.91 r13725"
   sodipodi:version="0.32"
   x="0px"
   y="0px"
   width="208px"
   height="303px"
   viewBox="0 0 208 303"
   enable-background="new 0 0 208 303"
   xml:space="preserve"><metadata
     id="metadata8"><rdf:RDF><cc:Work
         rdf:about=""><dc:format>image/svg+xml</dc:format><dc:type
           rdf:resource="http://purl.org/dc/dcmitype/StillImage" /><dc:title></dc:title></cc:Work></rdf:RDF></metadata><defs
     id="defs6" /><sodipodi:namedview
     width="208px"
     height="303px"
     inkscape:cy="208.46033"
     inkscape:cx="26.914734"
     inkscape:zoom="2.4857309"
     pagecolor="#ffffff"
     bordercolor="#666666"
     borderopacity="1.0"
     gridtolerance="10.0"
     guidetolerance="10.0"
     objecttolerance="10.0"
     id="base"
     inkscape:current-layer="svg2"
     inkscape:window-y="154"
     inkscape:window-x="262"
     inkscape:pageopacity="0.0"
     inkscape:pageshadow="2"
     inkscape:window-width="1891"
     inkscape:window-height="1012"
     showgrid="false"
     inkscape:window-maximized="0"
     showguides="true"
     inkscape:guide-bbox="true"><sodipodi:guide
       position="105.40159,195.51593"
       orientation="1,0"
       id="guide4209" /><sodipodi:guide
       position="164.94142,228.10192"
       orientation="1,0"
       id="guide4211" /><sodipodi:guide
       position="44.654873,184.65394"
       orientation="1,0"
       id="guide4213" /><sodipodi:guide
       position="-13.678069,150.45876"
       orientation="0,1"
       id="guide4215" /><sodipodi:guide
       position="-204.76874,209.5963"
       orientation="0,1"
       id="guide4217" /><sodipodi:guide
       position="-187.06771,90.114339"
       orientation="0,1"
       id="guide4219" /></sodipodi:namedview><path
     style="fill:#000000;fill-opacity:0.05882353;stroke:#000000;stroke-width:0.50004679;stroke-opacity:0"
     d="M 8.8535156 0.31054688 C 4.1535156 0.31054688 0.31054688 4.169587 0.31054688 8.8886719 L 0.31054688 294.11133 C 0.31054687 298.82439 4.1535156 302.68945 8.8535156 302.68945 L 199.13672 302.68945 C 203.84772 302.68945 207.68945 298.82439 207.68945 294.11133 L 207.68945 8.8886719 C 207.68945 4.169587 203.84772 0.31054688 199.13672 0.31054688 L 8.8535156 0.31054688 z M 13.134766 4.171875 L 195.08398 4.171875 C 199.58859 4.171875 203.26172 7.9268209 203.26172 12.517578 L 203.26172 289.98438 L 203.25977 289.98438 C 203.25977 294.56928 199.58665 298.32813 195.08203 298.32812 L 13.134766 298.32812 C 8.6406708 298.32812 4.96875 294.56927 4.96875 289.98438 L 4.96875 12.517578 C 4.96875 7.9268209 8.6406708 4.171875 13.134766 4.171875 z "
     id="path5" /><path
     style="fill:#a0a0a3;stroke:none;stroke-width:1px;stroke-linecap:butt;stroke-linejoin:miter;stroke-opacity:1;fill-opacity:0"
     d="M 3.8231677,299.76722 1.1955491,297.41948 0.9842843,152.72798 C 0.8270915,45.069461 1.0099206,7.4619512 1.6986152,5.7917897 3.7189925,0.89214831 -3.080059,1.1974285 104.02199,1.1974285 l 98.04312,0 2.35188,2.3518851 2.35189,2.3518852 0,145.3437012 c 0,98.14685 -0.26902,145.84636 -0.82844,146.89165 -2.21459,4.138 1.89789,3.9784 -102.50902,3.9784 l -96.9806337,0 -2.6276186,-2.34773 z"
     id="path3355"
     inkscape:connector-curvature="0" /><path
     style="fill:#a0a0a3;fill-opacity:0"
     d="M 3.8231677,299.76722 1.1955491,297.41948 0.9842843,152.72798 C 0.8270915,45.069461 1.0099206,7.4619512 1.6986152,5.7917897 3.7189925,0.89214831 -3.080059,1.1974285 104.02199,1.1974285 l 98.04312,0 2.35188,2.3518851 2.35189,2.3518852 0,145.3437012 c 0,98.14685 -0.26902,145.84636 -0.82844,146.89165 -2.21459,4.138 1.89789,3.9784 -102.50902,3.9784 l -96.9806337,0 -2.6276186,-2.34773 z"
     id="path4176"
     inkscape:connector-curvature="0" /><path
     style="fill:#a0a0a3;fill-opacity:0"
     d="M 3.8231677,299.76722 1.1955491,297.41948 0.9842843,152.72798 C 0.8270915,45.069461 1.0099206,7.4619512 1.6986152,5.7917897 3.7189925,0.89214831 -3.080059,1.1974285 104.02199,1.1974285 l 98.04312,0 2.35188,2.3518851 2.35189,2.3518852 0,145.3437012 c 0,98.14685 -0.26902,145.84636 -0.82844,146.89165 -2.21459,4.138 1.89789,3.9784 -102.50902,3.9784 l -96.9806337,0 -2.6276186,-2.34773 z"
     id="path4178"
     inkscape:connector-curvature="0" /><path
     style="fill:#a0a0a3;fill-opacity:0"
     d="M 3.8231677,299.76722 1.1955491,297.41948 0.9842843,152.72798 C 0.8270915,45.069461 1.0099206,7.4619512 1.6986152,5.7917897 3.7189925,0.89214831 -3.080059,1.1974285 104.02199,1.1974285 l 98.04312,0 2.35188,2.3518851 2.35189,2.3518852 0,145.3437012 c 0,98.14685 -0.26902,145.84636 -0.82844,146.89165 -2.21459,4.138 1.89789,3.9784 -102.50902,3.9784 l -96.9806337,0 -2.6276186,-2.34773 z"
     id="path4180"
     inkscape:connector-curvature="0" /><path
     style="fill:#a0a0a3;fill-opacity:0"
     d="M 3.8231677,299.76722 1.1955491,297.41948 0.9842843,152.72798 C 0.8270915,45.069461 1.0099206,7.4619512 1.6986152,5.7917897 3.7189925,0.89214831 -3.080059,1.1974285 104.02199,1.1974285 l 98.04312,0 2.35188,2.3518851 2.35189,2.3518852 0,145.3437012 c 0,98.14685 -0.26902,145.84636 -0.82844,146.89165 -2.21459,4.138 1.89789,3.9784 -102.50902,3.9784 l -96.9806337,0 -2.6276186,-2.34773 z"
     id="path4182"
     inkscape:connector-curvature="0" /><path
     style="fill:#a0a0a3;fill-opacity:0"
     d="M 3.8231677,299.76722 1.1955491,297.41948 0.9842843,152.72798 C 0.8270915,45.069461 1.0099206,7.4619512 1.6986152,5.7917897 3.7189925,0.89214831 -3.080059,1.1974285 104.02199,1.1974285 l 98.04312,0 2.35188,2.3518851 2.35189,2.3518852 0,145.3437012 c 0,98.14685 -0.26902,145.84636 -0.82844,146.89165 -2.21459,4.138 1.89789,3.9784 -102.50902,3.9784 l -96.9806337,0 -2.6276186,-2.34773 z"
     id="path4184"
     inkscape:connector-curvature="0" /><g
     id="g5"
     transform="matrix(0.24395898,0,0,0.24395898,47.285723,93.982471)"
     style="fill:#000000;fill-opacity:0.05882353"><path
       id="path7"
       d="m 55.323,203.641 c 15.664,0 29.813,-9.405 35.872,-23.854 25.017,-59.604 83.842,-101.61 152.42,-101.61 37.797,0 72.449,12.955 100.23,34.442 l -21.775,3.371 c -7.438,1.153 -13.224,7.054 -14.232,14.512 -1.01,7.454 3.008,14.686 9.867,17.768 l 119.746,53.872 c 5.249,2.357 11.33,1.904 16.168,-1.205 4.83,-3.114 7.764,-8.458 7.796,-14.208 l 0.621,-131.943 c 0.042,-7.506 -4.851,-14.144 -12.024,-16.332 -7.185,-2.188 -14.947,0.589 -19.104,6.837 L 414.403,70.096 C 370.398,26.778 310.1,0 243.615,0 142.806,0 56.133,61.562 19.167,149.06 c -5.134,12.128 -3.84,26.015 3.429,36.987 7.269,10.976 19.556,17.594 32.727,17.594 z"
       inkscape:connector-curvature="0"
       style="fill:#000000;fill-opacity:0.05882353" /><path
       id="path9"
       d="m 464.635,301.184 c -7.27,-10.977 -19.558,-17.594 -32.728,-17.594 -15.664,0 -29.813,9.405 -35.872,23.854 -25.018,59.604 -83.843,101.61 -152.42,101.61 -37.798,0 -72.45,-12.955 -100.232,-34.442 l 21.776,-3.369 c 7.437,-1.153 13.223,-7.055 14.233,-14.514 1.009,-7.453 -3.008,-14.686 -9.867,-17.768 L 49.779,285.089 c -5.25,-2.356 -11.33,-1.905 -16.169,1.205 -4.829,3.114 -7.764,8.458 -7.795,14.207 l -0.622,131.943 c -0.042,7.506 4.85,14.144 12.024,16.332 7.185,2.188 14.948,-0.59 19.104,-6.839 l 16.505,-24.805 c 44.004,43.32 104.303,70.098 170.788,70.098 100.811,0 187.481,-61.561 224.446,-149.059 5.137,-12.128 3.843,-26.014 -3.425,-36.987 z"
       inkscape:connector-curvature="0"
       style="fill:#000000;fill-opacity:0.05882353" /></g></svg>